<?xml version="1.0" encoding="UTF-8" standalone="no"?><svg width="36" height="37" viewBox="0 0 36 37" fill="none" xmlns="http://www.w3.org/2000/svg">
<path fill-rule="evenodd" clip-rule="evenodd" d="M17.5629 3.13805C16.4679 2.42498 15.117 2.21591 13.9088 2.40685C12.702 2.59759 11.4349 3.22544 10.6889 4.43152C10.3998 4.89886 10.2154 5.40953 10.1338 5.95135C8.95968 5.87272 7.77129 6.2288 6.8782 6.97363C5.97382 7.72786 5.39611 8.85632 5.39611 10.2251C5.39611 10.6741 5.45776 11.1346 5.58012 11.6047C5.13447 11.699 4.70545 11.8636 4.30398 12.0902C2.97813 12.8387 2.04657 14.1998 1.67869 15.6725C1.30405 17.1721 1.48368 18.9099 2.55078 20.3985C3.09135 21.1527 3.82354 21.7935 4.74345 22.2973C4.51579 22.602 4.32343 22.9305 4.16716 23.2746C3.52873 24.6801 3.48066 26.3455 3.96838 27.8098C4.46302 29.295 5.54634 30.6705 7.25436 31.3279C8.36749 31.7565 9.63922 31.8396 11.0333 31.5522C11.097 32.2639 11.2912 32.9107 11.6247 33.4764C12.339 34.6875 13.5354 35.2585 14.7081 35.3319C15.8284 35.4019 17.0637 35.0068 18 34.2085C18.9363 35.0068 20.1715 35.4019 21.2919 35.3319C22.4646 35.2585 23.661 34.6875 24.3753 33.4764C24.7087 32.9107 24.903 32.2639 24.9667 31.5522C26.3607 31.8396 27.6325 31.7565 28.7457 31.3279C30.4536 30.6705 31.5369 29.295 32.0316 27.8098C32.5194 26.3455 32.4712 24.6801 31.8328 23.2746C31.6765 22.9305 31.4842 22.602 31.2565 22.2973C32.1765 21.7935 32.9086 21.1527 33.4492 20.3985C34.5163 18.9099 34.6959 17.1721 34.3213 15.6725C33.9534 14.1998 33.0219 12.8387 31.696 12.0902C31.2945 11.8636 30.8655 11.699 30.4198 11.6047C30.5422 11.1346 30.6039 10.6741 30.6039 10.2251C30.6039 8.85632 30.0262 7.72786 29.1217 6.97363C28.2286 6.2288 27.0403 5.87272 25.8661 5.95135C25.7847 5.40953 25.6002 4.89886 25.3111 4.43152C24.565 3.22544 23.298 2.59759 22.0911 2.40685C20.883 2.21591 19.5321 2.42498 18.4371 3.13805C17.9791 3.4363 18.0208 3.4363 17.5629 3.13805ZM19.5049 30.9175V27.133C19.5067 26.4139 19.6699 25.3584 20.0908 24.5395C20.4859 23.7706 20.9919 23.38 21.7623 23.38C22.5934 23.38 23.2673 22.7058 23.2673 21.8739C23.2673 21.0421 22.5934 20.3677 21.7623 20.3677C20.8803 20.3677 20.1324 20.5798 19.5049 20.9239V19.6024C19.5067 18.8833 19.6699 17.8279 20.0908 17.0089C20.4859 16.24 20.9919 15.8494 21.7623 15.8494C22.5934 15.8494 23.2673 15.1752 23.2673 14.3434C23.2673 13.5115 22.5934 12.8372 21.7623 12.8372C20.8803 12.8372 20.1324 13.0492 19.5049 13.3934V6.80282C19.5075 6.20764 19.7506 5.87653 20.0788 5.66276C20.4654 5.41103 21.0426 5.29069 21.6216 5.3822C22.2019 5.47393 22.5808 5.7404 22.7518 6.01697C22.8904 6.24101 23.0589 6.73919 22.6365 7.72565C22.3522 8.38925 22.5786 9.16133 23.176 9.56609C23.7735 9.97085 24.5737 9.89443 25.0839 9.3839C25.6355 8.83201 26.6344 8.82032 27.1948 9.28768C27.4192 9.47477 27.594 9.7583 27.594 10.2251C27.594 10.7312 27.3822 11.5593 26.5575 12.7149C26.1352 13.3066 26.1955 14.1157 26.7009 14.638C27.2062 15.1604 28.0123 15.2468 28.6168 14.8435C29.2651 14.411 29.7849 14.4698 30.2172 14.7139C30.7255 15.0008 31.2048 15.6165 31.4013 16.4031C31.591 17.1625 31.4884 17.9662 31.0035 18.6427C30.5199 19.3174 29.5147 20.058 27.5347 20.3883C26.8024 20.5104 26.2686 21.1486 26.2773 21.8914C26.2858 22.6342 26.8344 23.2599 27.5692 23.3649C28.3218 23.4724 28.8105 23.8996 29.0928 24.5209C29.3949 25.1863 29.4409 26.0625 29.1762 26.8573C28.9183 27.6313 28.4026 28.2327 27.6651 28.5165C26.9247 28.8015 25.7098 28.8612 23.89 28.0333C23.3641 27.7941 22.7479 27.8773 22.3041 28.2472C21.8602 28.6173 21.6672 29.2089 21.8073 29.7697C21.9931 30.5139 22.3002 32.2507 21.1041 32.3256C20.2776 32.3772 19.5093 31.7481 19.5049 30.9175ZM16.495 6.80282C16.4925 6.20764 16.2493 5.87653 15.9211 5.66276C15.5346 5.41103 14.9574 5.29069 14.3784 5.3822C13.798 5.47393 13.4192 5.7404 13.2481 6.01697C13.1095 6.24101 12.9411 6.73919 13.3635 7.72565C13.6477 8.38925 13.4214 9.16133 12.824 9.56609C12.2266 9.97085 11.4262 9.89443 10.9161 9.3839C10.3646 8.83201 9.36547 8.82032 8.80509 9.28768C8.58076 9.47477 8.406 9.7583 8.406 10.2251C8.406 10.7312 8.61772 11.5593 9.44251 12.7149C9.86479 13.3066 9.80443 14.1157 9.29905 14.638C8.79369 15.1604 7.98757 15.2468 7.38309 14.8435C6.7348 14.411 6.2151 14.4698 5.7828 14.7139C5.27451 15.0008 4.79518 15.6165 4.59871 16.4031C4.40899 17.1625 4.51155 17.9662 4.99642 18.6427C5.48013 19.3174 6.48523 20.058 8.46529 20.3883C9.19749 20.5104 9.73135 21.1486 9.72273 21.8914C9.7141 22.6342 9.16555 23.2599 8.43072 23.3649C7.6782 23.4724 7.1895 23.8996 6.90726 24.5209C6.60508 25.1863 6.55909 26.0625 6.82383 26.8573C7.08165 27.6313 7.59733 28.2327 8.33484 28.5165C9.07531 28.8015 10.2902 28.8612 12.1099 28.0333C12.6358 27.7941 13.2521 27.8773 13.6959 28.2472C14.1398 28.6173 14.3328 29.2089 14.1927 29.7697C14.0068 30.5139 13.6999 32.2507 14.8959 32.3256C15.7224 32.3772 16.4907 31.7481 16.495 30.9175V30.9106V27.1336C16.4932 26.4145 16.3302 25.3587 15.9091 24.5395C15.514 23.7706 15.0081 23.38 14.2376 23.38C13.4065 23.38 12.7327 22.7058 12.7327 21.8739C12.7327 21.0421 13.4065 20.3677 14.2376 20.3677C15.1197 20.3677 15.8676 20.5798 16.495 20.9239V19.603C16.4932 18.8839 16.3302 17.8281 15.9091 17.0089C15.514 16.24 15.0081 15.8494 14.2376 15.8494C13.4065 15.8494 12.7327 15.1752 12.7327 14.3434C12.7327 13.5115 13.4065 12.8372 14.2376 12.8372C15.1197 12.8372 15.8676 13.0492 16.495 13.3934V6.80282Z" fill="#374151"/>
</svg>
